<svg width="200" height="200" viewBox="0 0 200 200" fill="none" xmlns="http://www.w3.org/2000/svg">
<defs>
  <filter id="watercolor" x="-20%" y="-20%" width="140%" height="140%" filterUnits="objectBoundingBox" primitiveUnits="userSpaceOnUse" color-interpolation-filters="sRGB">
    <feTurbulence type="fractalNoise" baseFrequency="0.05" numOctaves="5" seed="1" stitchTiles="stitch" result="noise"/>
    <feDiffuseLighting in="noise" surfaceScale="3" diffuseConstant="0.5" specularConstant="0.2" specularExponent="20" lighting-color="#ffffff" result="diffuse">
      <feDistantLight azimuth="45" elevation="60"/>
    </feDiffuseLighting>
    <feComposite in="SourceGraphic" in2="diffuse" operator="atop"/>
    <feGaussianBlur stdDeviation="3" result="blur"/>
    <feComposite in="SourceGraphic" in2="blur" operator="over"/>
  </filter>
</defs>
  <g filter="url(#watercolor)">
  <ellipse cx="100" cy="140" rx="50" ry="30" fill="#FFE0B2"/>
  <path d="M50 50 C 50 30, 150 30, 150 50 L150 140 C150 160, 50 160, 50 140 Z" fill="#FFE0B2" stroke="#000000" stroke-width="0.5" stroke-linejoin="round"/>
  <path d="M55 55 C 55 35, 145 35, 145 55 L145 135 C145 155, 55 155, 55 135 Z" fill="#FF9800"/>
  <path d="M70 75 C 70 70, 80 65, 90 65 L110 65 C 120 65, 130 70, 130 75" stroke="black" stroke-width="1" fill="none" stroke-linejoin="round"/>
  <path d="M75 90 C 75 85, 85 80, 95 80 L105 80 C 115 80, 125 85, 125 90" stroke="black" stroke-width="1" fill="none" stroke-linejoin="round"/>
  <path d="M70 110 C 70 105, 80 100, 90 100 L110 100 C 120 100, 130 105, 130 110" stroke="black" stroke-width="1" fill="none" stroke-linejoin="round"/>

  <path d="M125 40 C 130 45, 135 50, 140 55" stroke="black" stroke-width="0.5" fill="none" stroke-linejoin="round"/>
  <path d="M60 40 C 65 45, 70 50, 75 55" stroke="black" stroke-width="0.5" fill="none" stroke-linejoin="round"/>
  <ellipse cx="140" cy="30" rx="5" ry="3" fill="#FFE0B2"/>
  <ellipse cx="60" cy="30" rx="5" ry="3" fill="#FFE0B2"/>
  <path d="M125 15 L175 5" stroke="#4FC3F7" stroke-width="4" stroke-linecap="roject"/>
  <path d="M175 5 L185 15" stroke="#4FC3F7" stroke-width="4" stroke-linecap="round"/>
  <path d="M185 15 L175 25" stroke="#4FC3F7" stroke-width="4" stroke-linecap="round"/>
  <path d="M175 25 L185 35" stroke="#4FC3F7" stroke-width="4" stroke-linecap="round"/>
  <path d="M185 35 L175 45" stroke="#4FC3F7" stroke-width="4" stroke-linecap="round"/>

  <path d="M60 60 C 60 100, 140 100, 140 60" stroke="black" stroke-width="1" fill="none" stroke-linecap="round"/>

</g>
</svg>