<svg width="64" height="64" viewBox="0 0 64 64" fill="none" xmlns="http://www.w3.org/2000/svg">
  <!-- Background (matches the simple, bold icon style) -->
  <circle cx="32" cy="32" r="30" fill="#4FC3F7"/>
  <circle cx="24" cy="20" r="10" fill="#81D4FA" opacity="0.55"/>

  <!-- Bubbles -->
  <circle cx="46" cy="14" r="3" fill="#E1F5FE" opacity="0.9"/>
  <circle cx="52" cy="22" r="2" fill="#E1F5FE" opacity="0.85"/>

  <!-- Fish -->
  <g>
    <!-- Tail -->
    <path d="M16 32L6 24L6 40L16 32Z" fill="#FFA726"/>

    <!-- Body -->
    <ellipse cx="34" cy="34" rx="16" ry="10" fill="#FFCC80"/>
    <path d="M20 34C20 28.5 26.5 24 34 24C41.5 24 48 28.5 48 34C48 39.5 41.5 44 34 44C26.5 44 20 39.5 20 34Z" fill="#FFB74D" opacity="0.65"/>

    <!-- Top fin -->
    <path d="M30 24C31.5 20.5 36 19.5 40 21.5C36.5 23 33.5 24 30 24Z" fill="#FFA726" opacity="0.95"/>

    <!-- Eye -->
    <circle cx="40" cy="32" r="1.6" fill="#212121"/>
    <circle cx="40.6" cy="31.4" r="0.6" fill="#FFFFFF" opacity="0.9"/>

    <!-- Gill -->
    <path d="M30.5 33.5C31.6 32.2 31.6 35 30.5 33.5Z" stroke="#212121" stroke-width="1.5" stroke-linecap="round"/>

    <!-- Smile -->
    <path d="M36 36C34.8 37.2 33 37.6 31.4 36.8" stroke="#212121" stroke-width="2" stroke-linecap="round" stroke-linejoin="round"/>
  </g>
</svg>
