<svg width="64" height="64" viewBox="0 0 64 64" fill="none" xmlns="http://www.w3.org/2000/svg">
<circle cx="32" cy="32" r="30" fill="#E85D75"/>
<path d="M40 24C40 24 40 26 38 26C36 26 36 24 36 24" stroke="black" stroke-linecap="round"/>
<path d="M28 24C28 24 28 26 30 26C32 26 32 24 32 24" stroke="black" stroke-linecap="round"/>
<path d="M34 34C34 34 34 36 32 36C30 36 30 34 30 34" stroke="black" stroke-linecap="round"/>
<path d="M24 16C24 16 16 8 20 4C24 0 28 4 28 4" stroke="#7CB342" stroke-width="3" stroke-linecap="round"/>
</svg>