<svg width="64" height="64" viewBox="0 0 64 64" fill="none" xmlns="http://www.w3.org/2000/svg">
<rect x="14" y="14" width="36" height="40" rx="6" fill="#FFE0B2"/>
<path d="M14 54H50C50 55.6569 48.6569 57 47 57H17C15.3431 57 14 55.6569 14 54Z" fill="#FFCC80"/>
<path d="M22 28C22 29.1046 21.1046 30 20 30C18.8954 30 18 29.1046 18 28C18 26.8954 18.8954 26 20 26C21.1046 26 22 26.8954 22 28Z" fill="#212121"/>
<path d="M46 28C46 29.1046 45.1046 30 44 30C42.8954 30 42 29.1046 42 28C42 26.8954 42.8954 26 44 26C45.1046 26 46 26.8954 46 28Z" fill="#212121"/>
<path d="M32 36C34.2091 36 36 34.2091 36 32C36 29.7909 34.2091 28 32 28C29.7909 28 28 29.7909 28 32C28 34.2091 29.7909 36 32 36Z" fill="#212121"/>
<rect x="28" y="4" width="8" height="20" rx="4" fill="#4FC3F7"/>
<rect x="16" y="16" width="32" height="36" rx="4" fill="#FF9800"/>
</svg>