<svg width="64" height="64" viewBox="0 0 64 64" fill="none" xmlns="http://www.w3.org/2000/svg">
<path d="M16 56H48C48 45.5 40 37 32 37C24 37 16 45.5 16 56Z" fill="#8D6E63"/>
<path d="M48 25C48 15 39.5 10 32 10C24.5 10 16 15 16 25C16 32.45 20.94 38.24 27.84 39.56C28.56 39.69 29.28 39.82 30 40L30 40C30.72 39.82 31.44 39.69 32.16 39.56C39.06 38.24 44 32.45 44 25H48Z" fill="#F48FB1"/>
<circle cx="24" cy="22" r="1" fill="black"/>
<circle cx="40" cy="22" r="1" fill="black"/>
<path d="M36 27C35 27 30 27 28 27C27.3333 27 27.3333 28 28 28H36C36.6667 28 36.6667 27 36 27Z" fill="black"/>
</svg>