<svg width="1200" height="400" viewBox="0 0 1200 400" xmlns="http://www.w3.org/2000/svg">
  <defs>
    <linearGradient id="skyGradient" x1="0%" y1="0%" x2="0%" y2="100%">
      <stop offset="0%" style="stop-color:#B0E0E6;stop-opacity:1" />
      <stop offset="100%" style="stop-color:#E0F2F7;stop-opacity:1" />
    </linearGradient>
  </defs>

  <rect width="1200" height="400" fill="url(#skyGradient)" />

  <rect x="0" y="350" width="1200" height="50" fill="#C8D3D5" />

  <rect x="50" y="150" width="100" height="200" fill="#D0D0D0" />
  <rect x="250" y="100" width="150" height="250" fill="#E8E8E8" />
  <rect x="450" y="180" width="80" height="170" fill="#D0D0D0" />
  <rect x="600" y="120" width="120" height="230" fill="#E8E8E8" />
  <rect x="800" y="160" width="100" height="190" fill="#D0D0D0" />
  <rect x="950" y="140" width="130" height="210" fill="#E8E8E8" />

  <rect x="0" y="90" width="1200" height="20" fill="#A0A0A0" />

  <rect x="150" y="90" width="40" height="10" fill="#A0A0A0" />
  <rect x="350" y="90" width="40" height="10" fill="#A0A0A0" />
  <rect x="520" y="90" width="40" height="10" fill="#A0A0A0" />
  <rect x="720" y="90" width="40" height="10" fill="#A0A0A0" />
  <rect x="850" y="90" width="40" height="10" fill="#A0A0A0" />
  <rect x="1050" y="90" width="40" height="10" fill="#A0A0A0" />


  <rect x="120" y="100" width="10" height="250" fill="#A0A0A0" />
  <rect x="320" y="110" width="10" height="240" fill="#A0A0A0" />
  <rect x="490" y="190" width="10" height="160" fill="#A0A0A0" />
  <rect x="690" y="130" width="10" height="220" fill="#A0A0A0" />
  <rect x="820" y="170" width="10" height="180" fill="#A0A0A0" />
  <rect x="1020" y="150" width="10" height="200" fill="#A0A0A0" />

  <rect x="200" y="75" width="100" height="15" fill="#3CB371" />
  <rect x="750" y="75" width="100" height="15" fill="#FFA500" />
</svg>