<svg width="1200" height="400" viewBox="0 0 1200 400" fill="none" xmlns="http://www.w3.org/2000/svg">
<defs>
<linearGradient id="skyGradient" x1="0" y1="0" x2="0" y2="400" gradientUnits="userSpaceOnUse">
<stop stop-color="#9B59B6"/>
<stop offset="1" stop-color="#8E44AD"/>
</linearGradient>
</defs>
<rect width="1200" height="400" fill="url(#skyGradient)"/>
<g>
<rect x="50" y="250" width="100" height="100" fill="#FFD93D"/>
<path d="M50 250 L100 200 L150 250 Z" fill="#FFD93D"/>
<circle cx="100" cy="230" r="15" fill="#E85D75"/>
<circle cx="70" cy="220" r="15" fill="#E85D75"/>
</g>
<g>
<rect x="250" y="270" width="100" height="80" fill="#FF8C42"/>
<path d="M250 270 L300 220 L350 270 Z" fill="#FF8C42"/>
<circle cx="300" cy="250" r="15" fill="#E85D75"/>
</g>
<g>
<rect x="450" y="260" width="100" height="90" fill="#FFD93D"/>
<path d="M450 260 L500 210 L550 260 Z" fill="#FFD93D"/>
<circle cx="500" cy="240" r="15" fill="#E85D75"/>
<circle cx="470" cy="230" r="15" fill="#E85D75"/>
</g>
<g>
<rect x="650" y="280" width="100" height="70" fill="#FF8C42"/>
<path d="M650 280 L700 230 L750 280 Z" fill="#FF8C42"/>
<circle cx="700" cy="260" r="15" fill="#E85D75"/>
</g>
<g>
<rect x="850" y="250" width="100" height="100" fill="#FFD93D"/>
<path d="M850 250 L900 200 L950 250 Z" fill="#FFD93D"/>
<circle cx="900" cy="230" r="15" fill="#E85D75"/>
</g>
<g>
<rect x="1050" y="270" width="100" height="80" fill="#FF8C42"/>
<path d="M1050 270 L1100 220 L1150 270 Z" fill="#FF8C42"/>
<circle cx="1100" cy="250" r="15" fill="#E85D75"/>
<circle cx="1070" cy="240" r="15" fill="#E85D75"/>
</g>
<circle cx="150" cy="100" r="20" fill="#E85D75"/>
<circle cx="350" cy="80" r="20" fill="#E85D75"/>
<circle cx="550" cy="120" r="20" fill="#E85D75"/>
<circle cx="750" cy="90" r="20" fill="#E85D75"/>
<circle cx="950" cy="110" r="20" fill="#E85D75"/>
<circle cx="1150" cy="70" r="20" fill="#E85D75"/>
<rect x="0" y="350" width="1200" height="50" fill="#4A235A" />
</svg>