<svg viewBox="0 0 1200 400" xmlns="http://www.w3.org/2000/svg">
  <defs>
    <linearGradient id="skyGradient" x1="0%" y1="0%" x2="0%" y2="100%">
      <stop offset="0%" stop-color="#87CEEB"/>
      <stop offset="100%" stop-color="#B0E0E6"/>
    </linearGradient>
  </defs>
  <rect width="1200" height="400" fill="url(#skyGradient)"/>

  <ellipse cx="100" cy="50" rx="40" ry="20" fill="#FFFFFF" opacity="0.5"/>
  <ellipse cx="200" cy="70" rx="50" ry="25" fill="#FFFFFF" opacity="0.5"/>
  <ellipse cx="350" cy="60" rx="30" ry="15" fill="#FFFFFF" opacity="0.5"/>
  <ellipse cx="800" cy="80" rx="60" ry="30" fill="#FFFFFF" opacity="0.5"/>
   <ellipse cx="950" cy="50" rx="40" ry="20" fill="#FFFFFF" opacity="0.5"/>
  <ellipse cx="1100" cy="70" rx="50" ry="25" fill="#FFFFFF" opacity="0.5"/>

  <rect x="550" y="150" width="100" height="250" fill="#E8F4E8"/>
  <rect x="595" y="155" width="10" height="240" fill="#B0E0E6"/>
  <rect x="555" y="155" width="10" height="240" fill="#B0E0E6"/>
  <rect x="635" y="155" width="10" height="240" fill="#B0E0E6"/>
  <rect x="600" y="155" width="30" height="240" fill="#E8F4E8"/>

  <rect x="200" y="200" width="80" height="200" fill="#E0E0E0"/>
    <rect x="210" y="210" width="10" height="20" fill="#C0C0C0"/>
    <rect x="230" y="210" width="10" height="20" fill="#C0C0C0"/>
    <rect x="250" y="210" width="10" height="20" fill="#C0C0C0"/>
    <rect x="270" y="210" width="10" height="20" fill="#C0C0C0"/>
   <rect x="210" y="240" width="10" height="20" fill="#C0C0C0"/>
    <rect x="230" y="240" width="10" height="20" fill="#C0C0C0"/>
    <rect x="250" y="240" width="10" height="20" fill="#C0C0C0"/>
    <rect x="270" y="240" width="10" height="20" fill="#C0C0C0"/>
    <rect x="210" y="270" width="10" height="20" fill="#C0C0C0"/>
    <rect x="230" y="270" width="10" height="20" fill="#C0C0C0"/>
    <rect x="250" y="270" width="10" height="20" fill="#C0C0C0"/>
    <rect x="270" y="270" width="10" height="20" fill="#C0C0C0"/>
   <rect x="210" y="300" width="10" height="20" fill="#C0C0C0"/>
    <rect x="230" y="300" width="10" height="20" fill="#C0C0C0"/>
    <rect x="250" y="300" width="10" height="20" fill="#C0C0C0"/>
    <rect x="270" y="300" width="10" height="20" fill="#C0C0C0"/>
 <rect x="210" y="330" width="10" height="20" fill="#C0C0C0"/>
    <rect x="230" y="330" width="10" height="20" fill="#C0C0C0"/>
    <rect x="250" y="330" width="10" height="20" fill="#C0C0C0"/>
    <rect x="270" y="330" width="10" height="20" fill="#C0C0C0"/>


  <rect x="800" y="180" width="70" height="220" fill="#C0C0C0"/>
  <rect x="810" y="190" width="10" height="20" fill="#E0E0E0"/>
    <rect x="830" y="190" width="10" height="20" fill="#E0E0E0"/>
    <rect x="850" y="190" width="10" height="20" fill="#E0E0E0"/>
     <rect x="810" y="210" width="10" height="20" fill="#E0E0E0"/>
    <rect x="830" y="210" width="10" height="20" fill="#E0E0E0"/>
    <rect x="850" y="210" width="10" height="20" fill="#E0E0E0"/>
     <rect x="810" y="240" width="10" height="20" fill="#E0E0E0"/>
    <rect x="830" y="240" width="10" height="20" fill="#E0E0E0"/>
    <rect x="850" y="240" width="10" height="20" fill="#E0E0E0"/>
     <rect x="810" y="270" width="10" height="20" fill="#E0E0E0"/>
    <rect x="830" y="270" width="10" height="20" fill="#E0E0E0"/>
    <rect x="850" y="270" width="10" height="20" fill="#E0E0E0"/>
          <rect x="810" y="300" width="10" height="20" fill="#E0E0E0"/>
    <rect x="830" y="300" width="10" height="20" fill="#E0E0E0"/>
    <rect x="850" y="300" width="10" height="20" fill="#E0E0E0"/>
          <rect x="810" y="330" width="10" height="20" fill="#E0E0E0"/>
    <rect x="830" y="330" width="10" height="20" fill="#E0E0E0"/>
    <rect x="850" y="330" width="10" height="20" fill="#E0E0E0"/>

  <rect x="1000" y="220" width="90" height="180" fill="#E0E0E0"/>
  <rect x="1010" y="230" width="10" height="20" fill="#C0C0C0"/>
    <rect x="1030" y="230" width="10" height="20" fill="#C0C0C0"/>
    <rect x="1050" y="230" width="10" height="20" fill="#C0C0C0"/>
        <rect x="1070" y="230" width="10" height="20" fill="#C0C0C0"/>
<rect x="1010" y="260" width="10" height="20" fill="#C0C0C0"/>
    <rect x="1030" y="260" width="10" height="20" fill="#C0C0C0"/>
    <rect x="1050" y="260" width="10" height="20" fill="#C0C0C0"/>
        <rect x="1070" y="260" width="10" height="20" fill="#C0C0C0"/>
<rect x="1010" y="290" width="10" height="20" fill="#C0C0C0"/>
    <rect x="1030" y="290" width="10" height="20" fill="#C0C0C0"/>
    <rect x="1050" y="290" width="10" height="20" fill="#C0C0C0"/>
        <rect x="1070" y="290" width="10" height="20" fill="#C0C0C0"/>
<rect x="1010" y="320" width="10" height="20" fill="#C0C0C0"/>
    <rect x="1030" y="320" width="10" height="20" fill="#C0C0C0"/>
    <rect x="1050" y="320" width="10" height="20" fill="#C0C0C0"/>
        <rect x="1070" y="320" width="10" height="20" fill="#C0C0C0"/>

</svg>