<svg viewBox="0 0 1200 400" xmlns="http://www.w3.org/2000/svg">
  <defs>
    <linearGradient id="skyGradient" x1="0%" y1="0%" x2="0%" y2="100%">
      <stop offset="0%" style="stop-color:#87CEEB;stop-opacity:1" />
      <stop offset="100%" style="stop-color:#B0E2FF;stop-opacity:1" />
    </linearGradient>
    <linearGradient id="riverGradient" x1="0%" y1="0%" x2="0%" y2="100%">
      <stop offset="0%" style="stop-color:#48CAE4;stop-opacity:1" />
      <stop offset="100%" style="stop-color:#90E0EF;stop-opacity:1" />
    </linearGradient>
  </defs>

  <rect width="1200" height="250" fill="url(#skyGradient)" />
  <rect y="250" width="1200" height="150" fill="#7CB342" />

  <rect y="220" x="0" width="1200" height="80" fill="url(#riverGradient)" />

  <path d="M0 280 L1200 280" stroke="#B0E2FF" stroke-width="2" stroke-dasharray="10,10" />

  <rect x="50" y="150" width="30" height="100" fill="#2E7D32"/>
    <ellipse cx="65" cy="150" rx="40" ry="20" fill="#9CCC65"/>

  <rect x="200" y="170" width="30" height="80" fill="#2E7D32"/>
    <ellipse cx="215" cy="170" rx="40" ry="20" fill="#9CCC65"/>

  <rect x="400" y="140" width="30" height="110" fill="#2E7D32"/>
    <ellipse cx="415" cy="140" rx="40" ry="20" fill="#9CCC65"/>

  <rect x="600" y="160" width="30" height="90" fill="#2E7D32"/>
    <ellipse cx="615" cy="160" rx="40" ry="20" fill="#9CCC65"/>

  <rect x="800" y="150" width="30" height="100" fill="#2E7D32"/>
    <ellipse cx="815" cy="150" rx="40" ry="20" fill="#9CCC65"/>

    <rect x="950" y="170" width="30" height="80" fill="#2E7D32"/>
    <ellipse cx="965" cy="170" rx="40" ry="20" fill="#9CCC65"/>

  <path d="M1000 120 Q1050 80, 1100 120" stroke="#808080" stroke-width="5" fill="transparent"/>

  <rect x="1000" y="120" width="100" height="20" fill="#D3D3D3"/>

  <rect x="1020" y="140" width="20" height="20" fill="#A9A9A9"/>
  <rect x="1060" y="140" width="20" height="20" fill="#A9A9A9"/>

  <rect x="1000" y="70" width="20" height="50" fill="#D3D3D3"/>
  <rect x="1100" y="70" width="20" height="50" fill="#D3D3D3"/>

  <rect x="1120" y="90" width="20" height="30" fill="#A9A9A9"/>

  <circle cx="1150" cy="60" r="20" fill="#F4D03F"/>

  <path d="M0 275 L1200 275" stroke="#ADD8E6" stroke-width="1"/>
</svg>